<svg version="1.1" xmlns="http://www.w3.org/2000/svg" viewBox="0 0 450.6917894190202 384.21613494237283" width="1352.0753682570607" height="1152.6484048271186">
  <!-- svg-source:excalidraw -->
  
  <defs>
    <style>
      @font-face {
        font-family: "Virgil";
        src: url("https://excalidraw.com/Virgil.woff2");
      }
      @font-face {
        font-family: "Cascadia";
        src: url("https://excalidraw.com/Cascadia.woff2");
      }
    </style>
  </defs>
  <g transform="translate(62 301.53770651000707) rotate(0 49 12.5)"><text x="0" y="18" font-family="Virgil, Segoe UI Emoji" font-size="20px" fill="#000000" text-anchor="start" style="white-space: pre;" direction="ltr">Intel NUC</text></g><g transform="translate(10 131.53770651000707) rotate(0 73.5 12.5)"><text x="0" y="18" font-family="Virgil, Segoe UI Emoji" font-size="20px" fill="#000000" text-anchor="start" style="white-space: pre;" direction="ltr">ESXi Hypervisor</text></g><g stroke-linecap="round" transform="translate(180.5917791055722 250.3291410159361) rotate(0 126.90822089442787 61.943496963218365)"><path d="M-1.79 -0.32 L255.68 -1.62 L252.74 123.65 L1.59 124.77" stroke="none" stroke-width="0" fill="#ced4da"></path><path d="M-0.01 -0.83 C64.87 0.65, 131.92 -1.25, 254.77 0.93 M-0.15 -0.11 C62.51 0.44, 123.71 0.94, 253.8 -0.02 M252.88 -1.1 C254.5 30.1, 253.18 60.41, 253.97 124.83 M253.58 0.13 C255.02 29.32, 254.61 60.99, 252.94 122.96 M252.58 124.46 C179.8 124.74, 108.79 125.27, -0.42 124.59 M253.49 123.75 C191.51 125.37, 130.49 124.97, 0.43 123.99 M1.62 125.15 C2.04 77.74, -0.82 29.4, 1.07 -0.72 M-0.99 123.04 C0.79 84.39, 1.63 45.49, 0.62 0.56" stroke="#000000" stroke-width="1" fill="none"></path></g><g stroke-linecap="round" transform="translate(208.66714203314586 286.8114952118143) rotate(0 100.4666931064134 18.76705822873066)"><path d="M0 0 C0 0, 0 0, 0 0 M0 0 C0 0, 0 0, 0 0 M0.36 6.07 C1.06 5.49, 2.22 3.06, 5.18 0.93 M-0.37 6.78 C0.74 4.95, 2.68 3.51, 4.84 0.24 M-1.06 13.37 C2.8 10.26, 6.81 5.45, 10.22 0.32 M-0.17 12.48 C3.12 8.95, 6.4 5.48, 10.15 -0.7 M0.52 18.55 C3.29 12.49, 7.01 9.15, 17.04 -0.24 M0.29 17.66 C3.81 13.84, 8.43 9.92, 16.46 0.41 M0.6 25.99 C9.03 16.57, 16.65 5.37, 21.39 0.23 M0.85 24.72 C4.63 18.09, 10.42 12.11, 20.91 0.81 M-0.58 31.44 C7.69 24.38, 15.03 13.63, 25.23 -0.28 M-0.2 29.73 C7.58 21.7, 16.65 11.78, 27.01 1.02 M1.01 38.52 C10.51 26.68, 20.44 12, 30.71 -0.4 M0.74 37.1 C9.34 27.74, 16.14 18.15, 32.27 -0.55 M1.51 38.35 C15.98 25.9, 25.78 9.49, 34.9 -1.23 M3.16 38.99 C12.01 30.54, 21.3 18.86, 36.83 0.31 M5.95 41.84 C19.7 26.95, 28.74 17.23, 42.96 -0.38 M7.18 39.6 C18.54 26.99, 28.58 15.07, 42.69 -0.5 M12.89 38.37 C21.58 32.17, 27.26 23.32, 46.94 2.06 M14.2 39.85 C24.34 27.58, 35.35 13.84, 48.48 0.71 M18.37 39.86 C25.31 30.36, 32.07 24.53, 55.01 1.45 M18.83 39.45 C27.02 29.25, 36.69 18.7, 52.72 -0.62 M22.57 37.69 C34.08 28.3, 38.63 20.01, 58.22 -1.31 M23.6 39.8 C36.21 25.42, 49.52 8.65, 58.53 0.68 M28.54 40.74 C38.34 26.32, 51.19 16.11, 63.74 -1.82 M29.63 40.1 C41.67 23.91, 56.51 9.92, 62.93 -0.46 M35.44 37.41 C46.07 25.53, 55.59 12.45, 69.62 1.81 M33.93 39.28 C44.21 29.17, 53.06 18.54, 69.54 0.64 M41.32 41.6 C48.32 29.52, 55.67 24.41, 74.03 -1.04 M40.13 40.01 C49.63 28.22, 58.8 16.2, 73.88 0.41 M43.69 39.44 C56.91 27.63, 68.79 13.79, 78.01 0.53 M45.09 39.47 C51.7 31.46, 59.79 22.41, 80.07 1.04 M49.59 39.56 C57.68 31.32, 64.84 22.54, 86.74 0.9 M50.91 39.59 C58.53 30.7, 65.66 20.33, 84.13 0.44 M53.54 39.37 C66.07 27.66, 75.18 15.43, 88.26 -0.02 M54.96 39.31 C64.76 29, 73.06 19.54, 90.68 0.3 M62.22 39.75 C72.27 26.42, 86.51 10.95, 94.75 1.14 M60.52 39.3 C70.21 28.59, 78.45 19.8, 96.24 0.05 M65.18 39.1 C75.78 29.49, 87.15 18.72, 101.25 1.28 M65.45 39.99 C74.23 30.2, 84.43 18.37, 99.94 0.87 M72.1 39.3 C81.63 29.49, 90.28 14.06, 106.94 0.79 M71.52 39.56 C78.39 32.42, 85.46 23.38, 106.78 -0.31 M75.51 39.74 C89.48 27.11, 102.1 11.4, 109.86 1.56 M77.11 39.95 C84.36 30.27, 93.67 18.38, 110.4 -0.81 M84.09 39.32 C91.19 27.42, 102.28 16.74, 115.53 1.73 M82.48 38.82 C93.67 26.27, 103.55 15.65, 115.66 0.55 M85.38 38.43 C98.88 25.28, 110.75 11.98, 122.96 1.94 M86.51 39.62 C96.61 27.77, 107.78 16.36, 122.64 -0.31 M91.07 40.95 C101.09 31.09, 106.1 23.09, 126.7 -0.41 M91.96 39.51 C100.45 29.53, 109.22 19.71, 126.74 -0.45 M99.69 40.28 C109.83 28.6, 120.9 14.82, 133.42 -0.44 M98.21 39.44 C105.08 30.53, 113.42 22.4, 133.21 0.81 M101.91 41.3 C113.36 27.58, 124.34 18.37, 136.67 0.24 M102.53 40.07 C111.28 30.38, 119.17 22.33, 137.93 -0.11 M107.29 38.42 C118.59 25.82, 134.76 10.43, 142.12 -0.48 M108.78 39.85 C117.39 28.46, 128.68 16.67, 142.67 -1.02 M113.5 41.51 C127.03 24.17, 139.1 11.49, 146.32 0.81 M114.74 38.94 C124.76 27.4, 135.52 14.36, 147.81 0.01 M117.08 37.98 C128.87 26.94, 139.04 18.54, 153.94 -1.03 M118.77 39.28 C128.45 27.43, 139.03 15.28, 153.59 0.66 M122.7 38.7 C137.89 26.72, 149.27 9.98, 160.53 -1.59 M125.15 38.55 C135.13 26.37, 147.16 13.73, 158.92 0.35 M129.91 40.07 C141.46 22.64, 155.46 7.57, 165.75 -0.98 M128.76 40.18 C142.11 26.65, 153.85 11.68, 164.54 0.26 M134.39 37.99 C146.13 30.67, 152.98 19.03, 168.16 2.18 M134.34 39.35 C147.78 26.5, 158.98 11.93, 169.83 -0.67 M138.68 37.84 C149.93 28.28, 161.62 18.66, 174.43 0.79 M141.29 38.98 C148.07 30.66, 157.41 20.68, 176.06 0.23 M145.45 40.51 C161.21 22.88, 172.39 7.48, 178.09 1.25 M146.86 39.76 C158.56 23.72, 172.33 9.16, 179.11 -0.59 M152.25 40.39 C159.87 30.56, 168.02 20.24, 184.84 1.42 M150.94 40.12 C159.15 29.3, 167 20.36, 184.73 -0.98 M156.75 39.38 C166.52 25.77, 179.21 11.22, 191.21 0.72 M157.28 40.24 C167.69 27.77, 178.09 15.31, 191.31 1.01 M163.49 40.86 C174.75 24.83, 188.1 9.42, 197.87 -1.97 M162.27 40.04 C175.2 25.19, 188.01 9.6, 197.11 -0.96 M168.5 40.48 C174.52 31.35, 179.93 23.91, 200.37 1.74 M167.5 39.96 C178.17 25.87, 189.8 11.76, 201.01 0.57 M173.29 40.37 C180.96 30.77, 186.79 21.33, 200.48 6.54 M171.83 39.17 C180.34 29, 190.23 17.49, 201.86 5.55 M178.9 39.44 C183.71 32.66, 187.13 27.58, 199.97 13.5 M177.39 39.86 C185.04 30.95, 193.12 20.24, 202.26 12.61 M182.52 40.05 C189.65 33.32, 197.37 24.68, 202.87 18.55 M182.2 39.95 C187.53 34.1, 194.02 26.64, 200.84 19.45 M188.17 38.12 C191.73 34.18, 195.02 30.67, 200.71 25.81 M186.87 39.13 C192.32 35.5, 197.1 29.47, 201.46 24.25 M192.61 40.47 C195.89 37.99, 197.05 36.45, 202.03 30.18 M193.74 39.15 C196.71 36.59, 198.78 33.75, 201.26 30.18 M198.18 40.33 C199.46 38.68, 200.46 38.01, 201 37.24 M198.45 40.04 C198.95 39.55, 199.29 38.69, 200.95 36.86 M0.28 37.78 C0.28 37.78, 0.28 37.78, 0.28 37.78 M0.28 37.78 C0.28 37.78, 0.28 37.78, 0.28 37.78 M6.62 37.07 C4.7 35.67, 2.66 34.11, -0.42 32.05 M5.83 37.22 C3.82 35.32, 1.8 34.04, -0.08 31.84 M12.97 37.46 C7.88 32.29, 4.6 29.14, -0.24 27.6 M11.54 36.86 C9.05 35.73, 6.67 33.34, 0.92 26.83 M16.19 37.12 C12.18 31.56, 6.59 29.86, -1 22.91 M18.7 36.87 C14.52 34.16, 10.02 29.7, -1.11 20.74 M26.22 36.91 C17.81 32.55, 13.64 28.17, 0.07 17.22 M23.96 38.33 C14.83 29.97, 6.07 20.16, 0.86 16.84 M31.83 38.52 C20.23 27.09, 8.02 18.41, 0.19 10.21 M30.31 38.56 C22.48 29.15, 12.86 21.35, 0.67 10.68 M35.12 38.19 C22 26.33, 9.05 14.38, 1.24 6.58 M36.18 37.83 C22.48 25.07, 8.4 13.57, 0.28 5.24 M41.96 36.62 C29.56 26.58, 15.76 11.97, -0.44 -1.08 M43.55 37.14 C26.42 22.55, 9.59 8.45, -0.13 -0.35 M48.7 38.39 C32.53 25.36, 18.56 12.99, 2.29 -1.11 M48.58 37.61 C36.06 25.89, 21.72 13.84, 2.17 -3.65 M56.21 37.2 C44.99 26.76, 33.23 17.54, 7.04 -1.96 M55.75 37.72 C39.31 24.48, 23.81 10.37, 8.12 -2.05 M60.59 39.29 C45.31 24.46, 32.53 14, 15.65 -2.17 M60.48 38.76 C46.8 24.9, 30.67 11.94, 14.64 -2.82 M67.44 37.39 C49.22 22, 33.04 5.21, 21.47 -4.54 M67.47 36.74 C57.81 28.3, 47.19 19.86, 19.94 -3.22 M74.15 36.7 C54.5 23.43, 39.27 8.13, 28.36 -4 M72.92 38.4 C58.24 24.87, 42.61 10, 26.45 -2.38 M80.54 38.3 C61 21.34, 40.8 4.97, 32.7 -2.33 M79.27 36.62 C67.47 26.78, 56.91 18.93, 32.88 -2.06 M87.01 36.39 C68.33 21.27, 49.79 8.28, 38.08 -0.82 M85.23 37.63 C67.85 22.45, 51.06 6.94, 38.91 -3.23 M93.14 37.72 C75.76 26.52, 61.11 12.09, 45.6 -2.21 M92.47 38.47 C78.78 28.22, 66.45 15.97, 45.49 -2.11 M96.05 35.51 C80.31 21.53, 62.39 7.21, 52.15 -0.81 M97.96 36.89 C84.27 26.07, 71.34 13.02, 51.07 -2.23 M104.6 39.46 C91.46 26.91, 81.9 18.17, 57.06 -3.05 M104.13 37.4 C88.5 24.65, 72.89 11.54, 56.34 -2.96 M110.14 39.16 C97.23 26.66, 82.77 17.36, 64.21 -2.21 M109.68 36.62 C94.07 24.85, 79.04 11.8, 64.25 -2.3 M116.54 37.31 C97.57 23.07, 80.63 5.34, 68.7 -3.06 M115.56 36.52 C103.06 26.67, 90.02 14.65, 70.75 -3.49 M122.91 37.14 C110.96 28.26, 98.81 15.93, 75.14 -3.88 M121.71 37.9 C106.9 26.13, 92.76 12.68, 75.02 -3 M125.85 36.39 C118.7 29.86, 106.67 17.98, 79.89 -2.44 M127.32 38.26 C110.23 23.78, 93.84 8.55, 81.76 -2.6 M133.73 37.25 C126.12 28.55, 114.16 19.23, 85.81 -4.69 M135.1 37.86 C119.23 24.98, 105.46 13.38, 87.92 -3.9 M141.4 37.82 C131.55 28.74, 119.88 19.43, 92.26 -3.41 M139.97 37.06 C128.6 29.08, 119.58 18.82, 94.71 -3.17 M148.23 37.28 C137.47 29.35, 128.89 22.77, 101.85 -2.87 M147.16 37.6 C130.95 22.92, 114.97 9.67, 100.3 -1.89 M152.83 39.38 C144.01 29.19, 130.61 20.79, 106.68 -4.83 M152.84 38.01 C137.8 25.91, 124.21 12.85, 106.14 -2.78 M159.29 38.35 C144.45 26.5, 131.58 15.87, 110.62 -2.6 M158.46 37.55 C145.11 26.45, 133.11 15.91, 113.19 -1.86 M163.48 36.89 C153.78 27.45, 138.27 16.29, 116.03 -1.59 M164.98 38.23 C153.18 27.36, 142 18.41, 118.62 -3 M171.77 37.59 C157.73 27.26, 143.65 15.69, 125.76 -2.1 M169.57 38.16 C155.08 24.66, 140.22 9.62, 123.91 -2.71 M175 36.14 C164.26 27.41, 152.98 15.7, 129.93 -3.9 M177.69 36.83 C162.86 25.79, 149.69 14.01, 131.48 -2.71 M183.3 36.77 C168.76 27.24, 157.78 15.39, 136.14 -4.25 M183.79 38.51 C165.65 22.86, 148.03 8.13, 137.02 -1.99 M188.27 38.23 C169.49 19.81, 152.54 7.09, 143.76 -3.94 M189.56 38.23 C175.64 26.89, 162.98 15.27, 143.75 -2.81 M193.26 35.71 C177.72 22.74, 163.92 9.37, 146.64 -3.92 M196.19 37.73 C184.71 27.34, 174.28 18.56, 149.1 -3.29 M200.15 36.3 C184.61 23.97, 164.12 7.73, 155.14 -3.95 M201.13 36.88 C187.24 25.69, 175.74 15.68, 154.77 -2.19 M201.24 30.95 C189.44 23.01, 175.5 10.33, 162.88 -3.33 M202.04 31.67 C185.59 19.92, 171.75 6.59, 161.45 -3.49 M199.44 24.98 C192.1 18.25, 182.57 12.28, 164.95 -2.8 M200.89 26.71 C191.12 16.98, 181.09 7.43, 167.08 -2.42 M200.11 23.6 C196.31 17.46, 188.49 11.88, 172.23 -2.66 M201.9 20.75 C190.15 12.79, 179.09 3.03, 173.13 -3.48 M199.1 15.89 C193.55 10.41, 190.9 7.86, 178.06 -3.35 M201.49 16.66 C195.7 12.34, 190.72 7.23, 179.26 -3.06 M200.77 12.04 C194.42 5.66, 187.85 -0.66, 184.32 -4.15 M200.38 10.68 C195.02 4.72, 189.7 0.09, 185.45 -2.17 M200.29 5.82 C197.61 2.82, 196.05 1.94, 191.94 -3.31 M201.19 5.24 C198.39 3.11, 196.99 0.92, 192.25 -2.83 M200.86 0.61 C200.75 -0.84, 199.11 -0.91, 197 -2.86 M201.33 0.23 C199.63 -0.89, 198.45 -2.2, 197.24 -2.98" stroke="#fff" stroke-width="0.5" fill="none"></path><path d="M-0.92 -1.32 C72.17 -0.22, 141.09 1.07, 201.96 -1.02 M-0.12 0.8 C46.42 0.49, 93.62 0.32, 200.91 -0.51 M199.83 0.56 C200.99 10.89, 201.11 23.45, 201.88 36.38 M201.06 0.04 C200.48 14.41, 202.12 28.69, 200.01 37.42 M201.57 36.72 C161.55 37.88, 121.83 35.7, 0.78 36.5 M200.78 36.74 C157.48 36.64, 113.71 37.29, 0.11 38.33 M1.26 38.57 C2.26 27.5, 2.03 22.19, -0.72 0.27 M-0.84 37.59 C-0.79 29.4, -0.83 20.12, 0.56 -0.9" stroke="#000000" stroke-width="1" fill="none"></path></g><g stroke-linecap="round" transform="translate(320.0762025711201 300.9975210689213) rotate(0 6.0576325684409085 5.057632568440965)"><path d="M5.61 0.91 C6.8 0.52, 7.5 -0.46, 8.68 0.11 C9.86 0.68, 12.14 3, 12.71 4.34 C13.27 5.68, 12.91 7.12, 12.09 8.14 C11.26 9.17, 8.91 10.25, 7.74 10.49 C6.58 10.73, 6.15 10.11, 5.07 9.59 C3.99 9.08, 2.03 8.38, 1.26 7.39 C0.49 6.41, 0.5 4.63, 0.44 3.66 C0.38 2.69, 0.08 2.02, 0.9 1.56 C1.72 1.1, 4.54 1.03, 5.36 0.89 C6.18 0.75, 5.62 0.95, 5.82 0.74 M4.77 -0.16 C5.96 0.01, 9.63 0.78, 10.76 1.6 C11.9 2.42, 11.46 3.93, 11.59 4.75 C11.72 5.56, 12.09 5.84, 11.55 6.48 C11.01 7.13, 9.45 8.14, 8.37 8.61 C7.28 9.07, 6.4 9.62, 5.06 9.27 C3.73 8.92, 1.25 7.33, 0.36 6.5 C-0.53 5.67, -0.66 5.35, -0.28 4.28 C0.11 3.21, 1.71 0.93, 2.68 0.07 C3.65 -0.78, 4.85 -1.01, 5.55 -0.86 C6.24 -0.71, 6.65 0.85, 6.86 0.98" stroke="none" stroke-width="0" fill="#fff"></path><path d="M8.53 0.82 C9.65 1.06, 10.1 0.91, 10.64 1.71 C11.17 2.5, 11.85 4.25, 11.74 5.58 C11.63 6.92, 10.93 8.93, 9.97 9.71 C9.01 10.5, 7.22 10.39, 6.01 10.27 C4.79 10.16, 3.67 9.8, 2.68 9.01 C1.7 8.22, 0.41 6.53, 0.1 5.54 C-0.21 4.54, 0.28 4.02, 0.82 3.07 C1.36 2.11, 2.05 0.28, 3.33 -0.19 C4.62 -0.65, 7.74 0.18, 8.54 0.3 C9.34 0.43, 8.21 0.4, 8.14 0.56 M3.98 0.41 C4.91 -0.3, 7.37 -1.28, 8.53 -0.65 C9.69 -0.02, 10.57 3.28, 10.92 4.19 C11.27 5.11, 10.87 4.28, 10.64 4.85 C10.4 5.43, 10.31 6.95, 9.49 7.63 C8.67 8.32, 6.89 8.89, 5.71 8.96 C4.53 9.03, 3.24 8.36, 2.42 8.05 C1.6 7.73, 0.83 8.1, 0.81 7.07 C0.78 6.04, 1.57 3.17, 2.27 1.88 C2.96 0.6, 4.85 -0.58, 4.99 -0.65 C5.13 -0.72, 3.29 1.29, 3.11 1.48" stroke="#000000" stroke-width="1" fill="none"></path></g><g stroke-linecap="round" transform="translate(268.21078305362585 296.3361236351318) rotate(0 17.423052085933648 8.577151155013667)"><path d="M0 0 C0 0, 0 0, 0 0 M0 0 C0 0, 0 0, 0 0 M0.32 6.4 C1.35 4.3, 4.3 1.4, 5.28 1.16 M-0.18 6.78 C1.25 4.63, 2.43 2.97, 4.74 0.53 M1.54 13.18 C2.14 8.92, 5.12 6.4, 10.32 1.07 M0.58 12.26 C3.27 8.4, 4.91 5.2, 10.41 -0.52 M-1.26 17.37 C4.67 13.36, 9.99 5.24, 13.78 0.67 M0.55 18.09 C6.53 12.62, 11.08 6.69, 15.41 -0.21 M7.85 17.44 C10.58 11.88, 15.86 5.51, 23 1.67 M6.71 16.61 C12.38 10.86, 17.75 4.56, 21.54 -0.24 M12.73 19.33 C13.71 11.84, 18.68 8.32, 24.5 2.22 M11.93 17.86 C15.65 13.68, 20.44 8.24, 26.85 1.21 M17.92 18.63 C20.5 10.18, 27.14 3.91, 29.98 -1.32 M16.31 17.53 C22.48 11, 28.25 3.97, 32.84 0.33 M22.45 16.46 C23.68 11.61, 27.25 8.7, 34.36 0.65 M22.68 18.56 C25.91 11.89, 31.73 6.37, 36.48 0.34 M26.18 17.77 C29.81 16, 30.36 13.66, 37.22 8.37 M26.69 17.57 C29.38 15.5, 31.02 12.13, 36.09 7.26 M32.6 17.6 C33.45 16.14, 35.16 15.25, 36.04 12.55 M32.66 17.33 C33.92 16.17, 35.54 13.91, 36.11 12.83 M-0.19 16.99 C-0.19 16.99, -0.19 16.99, -0.19 16.99 M-0.19 16.99 C-0.19 16.99, -0.19 16.99, -0.19 16.99 M5.62 16.54 C4.79 16.15, 2.91 15.62, 0.88 11.56 M6.6 17.02 C4.4 16.01, 3.27 14.5, 0.1 11.71 M10.47 17.84 C8.52 13.85, 3.84 12.36, -0.42 5.32 M11.32 17.34 C8.07 12.28, 2.87 9.43, -0.16 7.12 M17.81 15.29 C11.86 12.63, 7.77 5.73, -0.07 -0.44 M18.09 17.43 C13.74 14.39, 10.5 9.17, 0.75 1.3 M22.93 18.79 C17.49 9.61, 6.28 2.25, 2.28 -3.1 M24.59 16.39 C16.23 9.95, 9.42 3.95, 1.62 -2.41 M31.11 17.79 C25.14 10.83, 19.67 5.54, 6.5 -0.94 M30.11 17.36 C21.88 10.95, 16.15 2.82, 8.4 -2.25 M36 16.3 C29.97 13.22, 25.49 5.11, 14.69 -1.68 M36.33 15.96 C27.3 8.82, 20.74 2.79, 13.5 -2.61 M34.97 9.93 C31.47 6.39, 29.01 4.52, 22.25 -1.67 M34.89 11.13 C31.78 8.18, 27.68 4.54, 20.85 -2.75 M36.4 6.61 C32.02 2.19, 29.65 -0.92, 27.38 -2.42 M35.32 6.12 C33.69 4.18, 31.03 1.47, 26.11 -3.02" stroke="#fab005" stroke-width="0.5" fill="none"></path><path d="M-0.26 -1.08 C9.85 0.92, 16.23 -1.58, 34.22 -0.38 M0.16 0.36 C9.97 0.06, 19.43 0.19, 35.24 -0.47 M34.19 0.02 C35.03 5.02, 33.91 10.02, 36.02 16.74 M34.53 0.8 C34.1 4.58, 34.76 9.89, 34.86 16.5 M36.76 18.83 C22.65 18.21, 10.32 15.64, 1.56 16.35 M34.66 16.51 C25.52 17.23, 16.02 16.29, -0.78 17.96 M-1.57 18.64 C0.83 10.31, 0.15 3.67, 0.72 -1.7 M0.76 16.58 C0.53 13.94, -0.78 9.62, 0.8 -0.69" stroke="#000000" stroke-width="1" fill="none"></path></g><g stroke-linecap="round" transform="translate(217.5769479140663 296.9605553549934) rotate(0 17.423052085933648 8.577151155013667)"><path d="M0 0 C0 0, 0 0, 0 0 M0 0 C0 0, 0 0, 0 0 M-0.27 6.62 C0.98 5.28, 3.36 3.14, 5.44 0.43 M-0.46 6.12 C1.07 4.74, 2.82 3.42, 5.35 0.42 M-0.41 10.6 C2.86 9.75, 6.53 4.14, 11.97 -0.47 M0.91 12.42 C3.04 9.08, 6.21 4.51, 10.68 -0.6 M1.89 18.22 C5.37 12.63, 8.34 11.52, 16.77 1.27 M1.5 17.66 C4.51 13.36, 7.02 10.78, 14.87 0.7 M7.14 17.74 C11.78 12.35, 16.73 4.33, 21.19 -0.04 M6.87 18.04 C10.38 12.13, 14.6 7.66, 22.19 -0.98 M9.65 19 C16.88 11.67, 22.74 5.4, 26.1 -1.09 M11.75 18.11 C13.87 13.07, 17.04 10.15, 27.04 0.15 M15.94 19.13 C19.23 12.46, 24.69 8.91, 32.18 0.99 M16.5 17.57 C22.93 11.28, 28.25 4.48, 31.66 -0.23 M22.02 17.77 C25.21 14.33, 31.99 6.51, 34.32 -0.65 M22.71 16.81 C26.41 13.62, 29.81 8.12, 36.28 0.08 M27.25 18.91 C28.97 16.37, 32.24 12.79, 35.71 7.24 M27.12 17.5 C29.18 14.46, 31.41 11.87, 35.34 7.48 M32.26 17 C34.04 15.38, 35.38 13.73, 36.59 13.42 M32.57 17.77 C33.56 16.04, 34.99 14.97, 36.24 13.18 M-0.19 16.99 C-0.19 16.99, -0.19 16.99, -0.19 16.99 M-0.19 16.99 C-0.19 16.99, -0.19 16.99, -0.19 16.99 M6.63 17.32 C4.28 15.55, 1.7 13.19, 0.47 12.16 M6.19 16.91 C4.23 15.48, 2.48 13.89, 0.2 12.15 M11.92 17.56 C7.52 11.96, 3.37 9.21, -1.18 5.06 M12.25 16.46 C8.27 14.48, 5.58 10.53, -0.52 6.84 M20.15 16.79 C11.07 11.18, 4.42 4.55, -0.97 2.36 M18.02 16.36 C12.14 11.27, 6.5 6.15, 0.07 0.71 M25.02 15.84 C14.61 9.3, 6.42 3.71, 2.38 -1.7 M24.13 18.17 C16.83 11.77, 11.26 4.86, 1.92 -2.56 M29.15 18.62 C21.46 8.92, 13.37 4.64, 8.51 -1.92 M30.85 16.32 C25.65 11.76, 19.52 8.79, 8.19 -2.27 M34.15 16.67 C31.93 11.17, 23.93 6.11, 14.49 -1.51 M35.14 17.38 C29.24 11.57, 24.51 6.03, 15.02 -2.36 M36.34 10.15 C30.36 7.8, 26.69 -0.35, 21.68 -3.26 M36.4 10.8 C31.95 7.62, 28.23 4.41, 20.63 -2.07 M34.91 5.23 C32.49 1.51, 27.53 -0.74, 26 -2.26 M36.05 5.92 C33.2 4.07, 31.35 2.44, 25.67 -2.55" stroke="#228be6" stroke-width="0.5" fill="none"></path><path d="M0.69 -1.32 C12.51 1.18, 24.85 -0.79, 33.73 1.34 M-0.27 0.41 C8.79 -0.74, 15.38 0.01, 34.41 -0.51 M35.64 -1.12 C34.42 5.44, 35.43 11, 36.25 17.93 M35.48 -0.34 C34.61 5.56, 35.31 13.38, 34.39 16.99 M34.9 17.59 C21.2 17.82, 9.97 18.91, 0.04 16.39 M33.9 16.89 C23.31 17.37, 12.51 17.32, -0.06 18.08 M1.25 17.43 C-0.01 14.83, -1.36 9.96, -0.92 -0.68 M-0.33 17.14 C-0.53 11.25, -0.02 5.11, -0.72 0.67" stroke="#000000" stroke-width="1" fill="none"></path></g><g stroke-linecap="round" transform="translate(376.9999999999999 293.53770651000707) rotate(0 12 13)"><path d="M0.97 0.45 C8.8 1.47, 17.02 -0.19, 23.93 0.03 M0.7 0.75 C6.88 -0.13, 13.65 0.37, 24.93 -0.92 M22.49 1.35 C23.92 10.79, 23.97 21.19, 23.85 24.62 M24.6 0.47 C23.42 4.58, 23.39 10.87, 24.79 25.86 M23.79 27.12 C18.82 24.51, 16.2 24.65, 0.29 27.09 M24.35 25.56 C15.19 26.27, 4.88 26.6, -0.23 25.88 M0.24 26.15 C-0.82 20.08, 1.73 9.5, -1.9 -1.66 M0.92 25.2 C0.43 19.26, -0.44 10.97, 0.06 -0.94" stroke="#000000" stroke-width="1" fill="none"></path></g><g stroke-linecap="round"><g transform="translate(386.82795698924735 291.68824414441576) rotate(0 0.7047479536308856 5.720030857389759)"><path d="M-0.32 0.54 C0 2.22, 0.63 8.33, 0.93 10.08 M1.71 -0.22 C1.96 1.67, 0.07 10.08, -0.06 11.66" stroke="#1864ab" stroke-width="1" fill="none"></path></g></g><g stroke-linecap="round" transform="translate(377.82795698924735 298.68824414441576) rotate(0 10 9)"><path d="M0.03 5.32 C0.03 5.32, 0.03 5.32, 0.03 5.32 M0.03 5.32 C0.03 5.32, 0.03 5.32, 0.03 5.32 M0.46 10.12 C2.03 7.53, 5.75 6.14, 7.9 0.79 M-0.03 10.43 C3.03 8.15, 5.87 3.8, 7.71 1.51 M4.03 13.43 C6.23 11.54, 7.93 6.5, 13.96 0.84 M2.94 13.68 C5.88 10.84, 8.25 7.95, 13.07 2.88 M5.87 15.69 C7.57 15.84, 9.69 13.08, 18.32 5.16 M5.81 17.59 C8.93 13.6, 10.84 11.33, 16.82 4.39 M10.51 18.42 C15.08 12.51, 19.1 9.6, 20.61 6.39 M10.84 17.85 C13.68 13.58, 17.05 10.1, 21.25 6.51" stroke="#228be6" stroke-width="0.5" fill="none"></path><path d="M11.81 1.01 C13.82 1.42, 16.89 2.69, 18.14 4.26 C19.39 5.82, 19.58 8.58, 19.31 10.4 C19.05 12.21, 17.77 13.95, 16.56 15.17 C15.35 16.4, 14.09 17.62, 12.03 17.73 C9.97 17.84, 6.11 16.72, 4.19 15.83 C2.27 14.95, 1.21 14.18, 0.51 12.44 C-0.2 10.7, -0.98 7.41, -0.03 5.4 C0.91 3.38, 4.17 1.33, 6.2 0.36 C8.23 -0.62, 10.91 -0.58, 12.16 -0.44 C13.41 -0.29, 13.64 0.95, 13.69 1.22 M13.05 0.94 C15.39 1.33, 18.82 3.14, 20.18 4.84 C21.54 6.54, 21.76 9.47, 21.21 11.13 C20.67 12.8, 18.94 13.6, 16.91 14.85 C14.88 16.09, 11.43 18.45, 9.04 18.59 C6.66 18.73, 3.88 16.86, 2.59 15.68 C1.29 14.5, 1.67 13.28, 1.28 11.5 C0.89 9.73, -0.6 7.02, 0.23 5.04 C1.06 3.06, 3.92 0.18, 6.26 -0.39 C8.59 -0.95, 12.74 1.45, 14.22 1.62 C15.69 1.8, 15.19 0.72, 15.12 0.66" stroke="#1864ab" stroke-width="1" fill="none"></path></g><g stroke-linecap="round"><g transform="translate(173.38182443599965 156.37903032066538) rotate(0 132.78496426214213 12.700442930856411)"><path d="M-0.96 -0.38 C-0.85 3.22, 0.43 15.06, 1.57 20.64 C2.71 26.22, 1.16 30.94, 5.88 33.11 C10.59 35.27, 10.66 33.35, 29.86 33.64 C49.06 33.93, 88.76 34.62, 121.09 34.85 C153.43 35.08, 201.83 35.32, 223.87 35.03 C245.91 34.74, 246.91 33.95, 253.35 33.1 C259.78 32.26, 260.35 31.7, 262.48 29.97 C264.61 28.24, 265.38 26.57, 266.15 22.73 C266.91 18.9, 267.75 10.93, 267.06 6.99 C266.36 3.05, 264.31 1.49, 261.97 -0.91 C259.63 -3.3, 259.36 -6.1, 253 -7.39 C246.64 -8.68, 245.77 -8.59, 223.82 -8.65 C201.88 -8.71, 153.99 -7.67, 121.32 -7.75 C88.65 -7.83, 47.04 -9.31, 27.79 -9.14 C8.54 -8.96, 10.51 -8.13, 5.83 -6.68 C1.14 -5.24, 0.56 -1.52, -0.32 -0.46 M0.74 -1.62 C0.68 2.22, 0.27 16.45, 1.09 21.95 C1.92 27.46, 0.8 29.22, 5.7 31.39 C10.59 33.55, 10.89 34.8, 30.45 34.93 C50.01 35.06, 90.63 32.22, 123.03 32.17 C155.44 32.12, 203.02 34.15, 224.89 34.62 C246.76 35.09, 248.1 35.88, 254.24 35 C260.38 34.12, 259.96 31.62, 261.72 29.35 C263.48 27.07, 264.28 25.18, 264.78 21.35 C265.28 17.53, 265.22 10.47, 264.71 6.4 C264.2 2.32, 263.91 -0.69, 261.72 -3.11 C259.52 -5.53, 257.88 -7.61, 251.53 -8.12 C245.19 -8.64, 245.4 -6.28, 223.65 -6.2 C201.91 -6.11, 153.61 -7, 121.07 -7.61 C88.54 -8.22, 48.04 -9.68, 28.45 -9.85 C8.86 -10.03, 8.56 -10.33, 3.52 -8.68 C-1.51 -7.03, -1.08 -1.38, -1.74 0.04" stroke="#000000" stroke-width="1" fill="none"></path></g></g><g stroke-linecap="round"><g transform="translate(188.7548942081993 157.20430362135028) rotate(0 71.39675088093611 11.445846607796398)"><path d="M-0.38 0.89 C18.93 1.27, 90.92 0.81, 114.94 1.28 C138.95 1.75, 138.27 1.88, 143.71 3.72 C149.14 5.55, 147.66 9.21, 147.56 12.29 C147.46 15.38, 147.82 20.29, 143.11 22.22 C138.4 24.15, 138.78 23.66, 119.3 23.88 C99.83 24.11, 46.49 23.96, 26.26 23.57 C6.03 23.19, 2.93 24.53, -2.07 21.56 C-7.07 18.6, -4.06 9.54, -3.75 5.76 C-3.45 1.98, -1.03 -0.12, -0.26 -1.09 M1.63 0.32 C20.82 0.46, 90.11 -0.49, 113.77 -0.25 C137.42 -0.02, 137.86 -0.51, 143.56 1.72 C149.27 3.95, 148.22 9.73, 148 13.15 C147.78 16.56, 147.28 20.56, 142.22 22.22 C137.17 23.88, 136.97 23.04, 117.68 23.09 C98.39 23.13, 46.05 22.75, 26.48 22.49 C6.92 22.23, 5.6 24.46, 0.28 21.53 C-5.04 18.6, -5.44 8.26, -5.42 4.93 C-5.41 1.59, -0.81 2.22, 0.37 1.54" stroke="#000000" stroke-width="1" fill="none"></path></g></g><g stroke-linecap="round"><g transform="translate(407.83466019010257 162.50264015845949) rotate(0 12.089497044988093 6.654936785252858)"><path d="M-0.42 1.12 C0.35 0.28, 0.39 -3.24, 4.21 -4.17 C8.03 -5.09, 19.03 -6.19, 22.49 -4.43 C25.95 -2.68, 24.93 2.6, 24.98 6.38 C25.03 10.15, 26.15 16.26, 22.78 18.22 C19.4 20.18, 8.52 18.71, 4.71 18.14 C0.89 17.56, 0.67 16.53, -0.11 14.77 C-0.88 13.01, 0.1 10.22, 0.07 7.57 C0.05 4.93, -0.4 0.18, -0.26 -1.09 M1.56 0.66 C2.31 -0.61, 0.5 -5.27, 3.89 -5.94 C7.28 -6.62, 18.87 -5.54, 21.91 -3.37 C24.96 -1.19, 22.15 3.38, 22.15 7.09 C22.16 10.79, 24.67 17.15, 21.93 18.86 C19.19 20.57, 9.31 18.22, 5.7 17.36 C2.08 16.51, 1.36 15.33, 0.25 13.74 C-0.85 12.14, -1.17 9.97, -0.95 7.78 C-0.73 5.59, 1.69 2.01, 1.59 0.61" stroke="#000000" stroke-width="1" fill="none"></path></g></g><g stroke-linecap="round"><g transform="translate(173.54462561931484 200.2910012961138) rotate(0 132.97682726483595 12.771440709728836)"><path d="M1.12 1.19 C1.19 4.82, 0.81 16.1, 1.33 21.41 C1.86 26.72, -0.24 30.86, 4.28 33.04 C8.8 35.22, 8.83 34.49, 28.46 34.47 C48.08 34.45, 89.26 33.13, 122.04 32.93 C154.82 32.74, 203.22 33.14, 225.13 33.3 C247.03 33.46, 247.15 34.42, 253.47 33.91 C259.78 33.4, 261.19 31.96, 263.02 30.25 C264.85 28.54, 263.98 27.57, 264.46 23.63 C264.94 19.7, 266.26 11.01, 265.9 6.65 C265.55 2.29, 264.3 -0.4, 262.31 -2.54 C260.32 -4.67, 260.17 -5.21, 253.98 -6.16 C247.8 -7.11, 247.36 -7.99, 225.21 -8.23 C203.05 -8.47, 154.12 -7.41, 121.06 -7.59 C88 -7.77, 46.07 -9.26, 26.85 -9.29 C7.63 -9.33, 10.19 -9.53, 5.75 -7.81 C1.31 -6.1, 1.25 -0.23, 0.23 0.97 M0.25 0.76 C0.14 4.06, 0.23 14.39, 0.73 19.48 C1.23 24.56, -1.34 29.11, 3.26 31.28 C7.86 33.46, 8.72 32.27, 28.31 32.54 C47.9 32.81, 88.35 32.39, 120.82 32.9 C153.29 33.42, 200.88 35.69, 223.14 35.64 C245.41 35.58, 247.85 33.54, 254.42 32.56 C260.99 31.59, 260.63 31.41, 262.54 29.77 C264.45 28.13, 265.2 26.71, 265.87 22.72 C266.55 18.74, 267.22 10, 266.62 5.89 C266.01 1.78, 264.5 0.09, 262.23 -1.93 C259.97 -3.96, 259.11 -5.04, 253.03 -6.26 C246.95 -7.47, 247.82 -9.03, 225.76 -9.22 C203.71 -9.4, 153.8 -7.22, 120.68 -7.37 C87.55 -7.51, 46.55 -10.2, 27.01 -10.1 C7.46 -9.99, 8.06 -8.19, 3.41 -6.74 C-1.24 -5.3, -0.03 -2.46, -0.9 -1.43" stroke="#000000" stroke-width="1" fill="none"></path></g></g><g stroke-linecap="round"><g transform="translate(188.63372677777966 201.23848429772931) rotate(0 71.41201717842574 11.502992472124674)"><path d="M1.19 0.65 C20.54 0.41, 91.97 -0.59, 115.71 -0.32 C139.45 -0.04, 138.19 0.05, 143.64 2.31 C149.09 4.57, 148.81 9.71, 148.4 13.24 C147.99 16.77, 146.32 21.69, 141.19 23.48 C136.05 25.27, 136.59 23.9, 117.57 24 C98.55 24.11, 46.96 24.8, 27.06 24.11 C7.17 23.42, 3.2 23.13, -1.79 19.88 C-6.78 16.63, -3.05 8.05, -2.85 4.61 C-2.65 1.17, -0.95 -0.14, -0.59 -0.76 M0.35 -0.05 C19.61 0.39, 91.1 0.42, 114.95 0.97 C138.8 1.52, 138.35 0.97, 143.46 3.24 C148.57 5.51, 145.7 11.11, 145.61 14.59 C145.53 18.07, 147.44 22.69, 142.96 24.14 C138.47 25.58, 137.91 23.41, 118.7 23.27 C99.49 23.13, 47.98 23.42, 27.71 23.31 C7.43 23.21, 2.34 25.98, -2.95 22.62 C-8.24 19.27, -4.52 7.21, -4.05 3.17 C-3.58 -0.87, -0.68 -0.86, -0.14 -1.61" stroke="#000000" stroke-width="1" fill="none"></path></g></g><g stroke-linecap="round"><g transform="translate(407.05017699966277 206.43869405483474) rotate(0 11.908126946419713 6.882159713417366)"><path d="M0.36 -0.48 C0.85 -1.52, 0.32 -5.07, 4.15 -5.57 C7.97 -6.07, 20.17 -5.69, 23.33 -3.49 C26.48 -1.29, 23.44 3.99, 23.06 7.63 C22.68 11.27, 23.97 16.5, 21.05 18.34 C18.12 20.18, 8.99 19.55, 5.51 18.68 C2.03 17.8, 0.93 15.13, 0.17 13.09 C-0.58 11.04, 1.1 8.73, 0.97 6.42 C0.85 4.11, -0.31 0.17, -0.59 -0.76 M-0.91 -1.77 C-0.58 -2.73, -0.23 -3.79, 3.79 -4.43 C7.8 -5.06, 20 -7.21, 23.19 -5.58 C26.37 -3.95, 22.92 1.24, 22.88 5.34 C22.85 9.44, 25.61 16.9, 22.95 19.04 C20.29 21.18, 10.63 18.89, 6.92 18.19 C3.21 17.48, 1.76 16.85, 0.68 14.83 C-0.4 12.8, 0.35 8.31, 0.42 6.02 C0.49 3.74, 1.21 1.98, 1.08 1.12" stroke="#000000" stroke-width="1" fill="none"></path></g></g><g stroke-linecap="round"><g transform="translate(171.74179941476052 20.461560275393822) rotate(0 132.64895991025742 12.33767532076422)"><path d="M-0.09 1.16 C-0.17 4.89, -0.14 16.4, 0.65 21.63 C1.43 26.86, -0.08 30.51, 4.62 32.54 C9.31 34.58, 9.2 33.55, 28.82 33.82 C48.44 34.09, 89.84 34.34, 122.32 34.17 C154.81 34, 202.1 32.77, 223.72 32.79 C245.35 32.81, 245.73 34.61, 252.08 34.3 C258.43 33.98, 259.76 32.78, 261.84 30.9 C263.92 29.01, 263.74 26.96, 264.59 22.99 C265.44 19.02, 267.31 11.23, 266.93 7.06 C266.56 2.9, 264.83 0.4, 262.34 -2.01 C259.85 -4.41, 258.48 -6.18, 252.01 -7.37 C245.54 -8.55, 245.45 -8.78, 223.53 -9.11 C201.6 -9.45, 153.28 -9.36, 120.47 -9.4 C87.66 -9.44, 45.7 -9.81, 26.65 -9.38 C7.59 -8.95, 10.59 -8.23, 6.13 -6.82 C1.68 -5.41, 0.82 -1.94, -0.1 -0.9 M-1.6 0.73 C-1.94 4.16, -1.21 14.84, -0.31 19.8 C0.58 24.77, -1.08 28.57, 3.78 30.53 C8.64 32.49, 9.28 30.83, 28.86 31.54 C48.44 32.26, 88.61 34.24, 121.25 34.79 C153.88 35.35, 202.82 35.13, 224.67 34.86 C246.51 34.59, 246.29 33.84, 252.3 33.16 C258.31 32.48, 258.45 32.66, 260.74 30.76 C263.04 28.86, 265.44 25.78, 266.07 21.74 C266.7 17.7, 265.16 10.33, 264.53 6.52 C263.89 2.71, 264.08 1.31, 262.28 -1.13 C260.47 -3.56, 260.19 -7.13, 253.68 -8.09 C247.17 -9.06, 245.52 -6.57, 223.2 -6.9 C200.89 -7.24, 152.53 -9.57, 119.78 -10.13 C87.03 -10.68, 46 -10.43, 26.7 -10.22 C7.4 -10.02, 8.68 -10.49, 3.99 -8.89 C-0.69 -7.28, -0.69 -2.02, -1.41 -0.62" stroke="#000000" stroke-width="1" fill="none"></path></g></g><g stroke-linecap="round"><g transform="translate(187.11486918695994 21.286833576078607) rotate(0 71.2945791191105 11.624160448602652)"><path d="M1.16 -0.03 C20.61 -0.01, 92.26 -0.43, 115.93 0.02 C139.59 0.47, 137.84 0.43, 143.14 2.68 C148.45 4.93, 147.86 10.29, 147.75 13.52 C147.63 16.76, 147.54 20.56, 142.43 22.08 C137.31 23.59, 136.22 22.47, 117.06 22.61 C97.9 22.75, 47.15 23.37, 27.45 22.93 C7.75 22.5, 4.01 22.89, -1.14 20.01 C-6.3 17.12, -3.66 9.09, -3.5 5.64 C-3.34 2.18, -0.73 0.39, -0.18 -0.73 M0.32 -1.09 C19.71 -0.87, 91.55 0.67, 115.28 1.49 C139.01 2.3, 137.2 2.15, 142.7 3.79 C148.2 5.44, 148.53 8.33, 148.28 11.36 C148.02 14.4, 146.25 19.75, 141.19 22 C136.13 24.24, 136.74 24.89, 117.92 24.81 C99.11 24.73, 48.28 22.46, 28.3 21.51 C8.32 20.57, 3.59 21.95, -1.97 19.16 C-7.52 16.36, -5.45 8.19, -5.04 4.74 C-4.63 1.29, -0.35 -0.66, 0.49 -1.56" stroke="#000000" stroke-width="1" fill="none"></path></g></g><g stroke-linecap="round"><g transform="translate(375.00555832890393 26.486868607064707) rotate(0 11.977979885808793 5.183284419023664)" fill-rule="evenodd"><path d="M-1.83 -0.96 L3.08 -7.71 L13.73 -7.6 L21.27 -4.87 L25.75 2.17 L23.83 11.15 L22.84 15.89 L7.24 17.72 L2.5 15.61 L-1.86 -1.11" stroke="none" stroke-width="0" fill="#e64980" fill-rule="evenodd"></path><path d="M-0.03 0.57 C0.77 -0.47, 1.07 -4.44, 4.7 -5.1 C8.33 -5.77, 18.43 -5.53, 21.75 -3.42 C25.07 -1.31, 24.75 4.36, 24.61 7.57 C24.47 10.77, 24.34 14.09, 20.91 15.8 C17.48 17.5, 7.46 18.19, 4.03 17.8 C0.59 17.41, 1.16 15.69, 0.3 13.44 C-0.56 11.19, -1.23 6.56, -1.12 4.29 C-1.02 2.02, 0.86 0.57, 0.92 -0.18 M-1.5 -0.17 C-0.87 -1.06, -0.03 -6.02, 3.68 -6.9 C7.4 -7.78, 17.18 -8.11, 20.78 -5.48 C24.37 -2.84, 24.94 5.38, 25.25 8.9 C25.56 12.42, 26.01 14.29, 22.63 15.64 C19.26 16.98, 8.65 17.52, 5.02 16.96 C1.39 16.41, 1.54 14.44, 0.87 12.3 C0.2 10.15, 1.19 6.41, 1 4.08 C0.81 1.76, -0.04 -0.85, -0.26 -1.66" stroke="#000000" stroke-width="1" fill="none"></path></g></g><g stroke-linecap="round"><g transform="translate(404.85906469906456 26.585170113187814) rotate(0 12.162755209552131 6.18765707499125)" fill-rule="evenodd"><path d="M-0.96 -1.76 L-1.67 -2.42 L1.32 -5.69 L21.22 -2.41 L25.42 0.8 L22.34 14.17 L20.62 16.46 L13.62 19.46 L1.77 14.52 L-0.68 13.68 L-1.07 0.51" stroke="none" stroke-width="0" fill="#000000" fill-rule="evenodd"></path><path d="M0.57 -0.14 C0.99 -1, -0.03 -4.7, 3.65 -5.21 C7.33 -5.72, 19.23 -5.11, 22.67 -3.2 C26.11 -1.3, 24.66 2.87, 24.3 6.23 C23.94 9.59, 23.6 15.07, 20.54 16.95 C17.47 18.83, 9.19 18.12, 5.9 17.5 C2.61 16.87, 1.75 14.89, 0.82 13.21 C-0.11 11.54, 0.49 9.77, 0.33 7.45 C0.16 5.13, -0.09 0.7, -0.18 -0.73 M-0.59 -1.25 C-0.38 -1.94, -0.77 -3.22, 3.03 -3.87 C6.82 -4.52, 18.56 -6.94, 22.19 -5.15 C25.81 -3.36, 24.78 3.18, 24.78 6.86 C24.78 10.54, 25.66 15.33, 22.17 16.92 C18.69 18.51, 7.28 16.7, 3.86 16.39 C0.44 16.07, 2.4 16.48, 1.66 15.02 C0.93 13.55, -0.57 9.9, -0.56 7.59 C-0.56 5.28, 1.54 2.18, 1.71 1.17" stroke="#000000" stroke-width="1" fill="none"></path></g></g><g stroke-linecap="round"><g transform="translate(171.9046005980755 64.373531250842) rotate(0 132.38905854844376 12.492830367950035)"><path d="M-0.14 0.62 C-0.08 4.13, -0.65 16.3, 0.29 21.59 C1.23 26.88, 0.84 30.59, 5.51 32.36 C10.18 34.13, 9.1 31.94, 28.31 32.23 C47.52 32.52, 88.08 33.79, 120.77 34.13 C153.47 34.46, 202.63 34.22, 224.49 34.23 C246.34 34.23, 245.51 34.81, 251.91 34.16 C258.31 33.51, 260.74 32.27, 262.9 30.33 C265.05 28.39, 264.49 26.48, 264.83 22.53 C265.16 18.59, 265.38 10.93, 264.91 6.67 C264.44 2.41, 263.98 -0.59, 262.01 -3 C260.05 -5.42, 259.46 -6.9, 253.13 -7.81 C246.81 -8.73, 246.02 -8.49, 224.06 -8.47 C202.1 -8.46, 154.2 -7.52, 121.37 -7.72 C88.53 -7.93, 46.32 -9.67, 27.06 -9.73 C7.81 -9.78, 10.47 -9.66, 5.83 -8.05 C1.19 -6.44, 0.11 -1.38, -0.78 -0.06 M-1.67 -0.1 C-1.8 3, -1.99 14.7, -0.86 19.75 C0.28 24.81, 0.31 28.08, 5.13 30.25 C9.96 32.42, 8.52 32.04, 28.09 32.78 C47.65 33.53, 89.58 34.62, 122.54 34.72 C155.5 34.82, 204.24 33.68, 225.83 33.39 C247.41 33.09, 245.96 33.53, 252.04 32.95 C258.13 32.37, 259.96 31.88, 262.36 29.89 C264.76 27.91, 265.98 25.04, 266.43 21.05 C266.89 17.05, 265.88 9.86, 265.1 5.92 C264.33 1.97, 264.01 -0.8, 261.78 -2.64 C259.55 -4.48, 258.03 -3.96, 251.74 -5.12 C245.44 -6.27, 245.78 -9.18, 224.02 -9.59 C202.25 -10, 153.93 -7.99, 121.15 -7.57 C88.37 -7.16, 46.94 -7.18, 27.34 -7.1 C7.74 -7.02, 7.88 -8.39, 3.53 -7.1 C-0.83 -5.81, 1.89 -0.56, 1.22 0.65" stroke="#000000" stroke-width="1" fill="none"></path></g></g><g stroke-linecap="round"><g transform="translate(186.99370175654042 65.32101425245764) rotate(0 70.77895615106286 11.476635350564152)"><path d="M0.62 -0.39 C19.84 -0.21, 92.17 0.49, 115.89 0.91 C139.61 1.34, 137.92 0.32, 142.96 2.17 C148.01 4.01, 146.26 8.53, 146.16 11.97 C146.06 15.42, 146.99 21.09, 142.38 22.84 C137.77 24.58, 137.67 22.25, 118.5 22.44 C99.32 22.63, 47.35 24.35, 27.32 23.99 C7.28 23.62, 3.5 23.64, -1.71 20.25 C-6.92 16.85, -4.14 7.17, -3.95 3.62 C-3.76 0.07, -1.04 -0.46, -0.58 -1.05 M-0.51 -1.63 C18.55 -1.79, 91.4 -1.59, 115.23 -0.82 C139.05 -0.04, 137.32 0.77, 142.43 3.01 C147.53 5.26, 146.07 9.3, 145.86 12.65 C145.64 16.01, 146.02 21.17, 141.12 23.16 C136.22 25.14, 135.29 24.56, 116.45 24.55 C97.61 24.55, 47.97 23.97, 28.09 23.13 C8.21 22.29, 2.19 22.49, -2.83 19.52 C-7.86 16.55, -2.52 8.3, -2.07 5.32 C-1.61 2.33, -0.2 2.32, -0.11 1.6" stroke="#000000" stroke-width="1" fill="none"></path></g></g><g stroke-linecap="round"><g transform="translate(171.85162860152843 107.83878709742612) rotate(0 132.94493728811113 12.713604757904477)"><path d="M0.75 0.44 C0.78 3.69, -0.75 14.69, -0.22 20.01 C0.32 25.32, -0.93 30.04, 3.95 32.31 C8.83 34.59, 9.63 33.39, 29.07 33.67 C48.51 33.95, 87.86 33.99, 120.6 33.99 C153.35 33.99, 203.62 33.71, 225.54 33.66 C247.47 33.61, 246.26 34.33, 252.15 33.71 C258.04 33.09, 258.82 31.96, 260.88 29.93 C262.94 27.91, 263.64 25.49, 264.5 21.54 C265.36 17.59, 266.36 10.21, 266.04 6.22 C265.71 2.24, 264.55 -0.3, 262.55 -2.36 C260.54 -4.42, 260.38 -5.06, 254.03 -6.14 C247.69 -7.22, 246.64 -8.35, 224.48 -8.82 C202.32 -9.29, 154.07 -8.94, 121.06 -8.95 C88.05 -8.96, 45.61 -9.12, 26.39 -8.89 C7.17 -8.67, 10.33 -8.97, 5.74 -7.6 C1.16 -6.23, -0.11 -1.83, -1.12 -0.67 M-0.31 -0.37 C0.12 2.94, 0.9 15.9, 2.02 20.99 C3.15 26.08, 1.89 27.85, 6.43 30.18 C10.96 32.51, 9.94 34.25, 29.25 34.97 C48.56 35.7, 89.86 34.92, 122.28 34.51 C154.71 34.1, 202.09 32.9, 223.78 32.52 C245.47 32.15, 245.88 32.8, 252.41 32.26 C258.94 31.72, 260.68 30.8, 262.94 29.29 C265.19 27.78, 265.29 26.59, 265.94 23.19 C266.59 19.79, 267.38 13.04, 266.82 8.89 C266.26 4.75, 264.88 0.86, 262.59 -1.66 C260.31 -4.18, 259.43 -5.42, 253.11 -6.22 C246.78 -7.02, 246.72 -5.92, 224.65 -6.46 C202.58 -7, 153.74 -8.94, 120.68 -9.45 C87.62 -9.95, 45.86 -9.99, 26.31 -9.48 C6.76 -8.98, 7.67 -7.96, 3.4 -6.42 C-0.87 -4.89, 1.56 -1.24, 0.7 -0.27" stroke="#000000" stroke-width="1" fill="none"></path></g></g><g stroke-linecap="round"><g transform="translate(187.2856581823313 108.44995408475188) rotate(0 71.25186894914646 12.265241971391958)"><path d="M0.44 -0.9 C19.4 -1.13, 90.56 -1.28, 114.3 -0.64 C138.05 0, 137.36 0.85, 142.91 2.93 C148.46 5, 147.71 8.31, 147.59 11.8 C147.48 15.3, 147.19 22.08, 142.24 23.9 C137.3 25.71, 137.16 23, 117.93 22.68 C98.7 22.36, 46.87 22.43, 26.86 21.97 C6.86 21.51, 3.19 22.79, -2.11 19.92 C-7.41 17.05, -5.13 8.15, -4.95 4.74 C-4.77 1.34, -1.76 0.12, -1.02 -0.52 M-0.79 1.25 C18.49 1.08, 92.61 -0.01, 116.47 0.48 C140.32 0.96, 137.09 2.19, 142.35 4.18 C147.62 6.16, 148.29 8.96, 148.04 12.4 C147.8 15.83, 145.71 22.68, 140.91 24.77 C136.11 26.86, 138.16 25.1, 119.25 24.92 C100.33 24.74, 47.24 24.08, 27.4 23.71 C7.57 23.33, 5.39 26.07, 0.23 22.69 C-4.94 19.3, -3.41 7.36, -3.58 3.37 C-3.75 -0.61, -1.3 -0.47, -0.79 -1.25" stroke="#000000" stroke-width="1" fill="none"></path></g></g><g transform="translate(217.82795698924747 22.688244144415762) rotate(0 36.5 9.319148936170222)"><text x="0" y="14.638297872340427" font-family="Cascadia, Segoe UI Emoji" font-size="15.531914893617014px" fill="#087f5b" text-anchor="start" style="white-space: pre;" direction="ltr">Castle-1</text></g><g transform="translate(219.32795698924747 67.36909520824554) rotate(0 37.5 9.5)"><text x="0" y="15" font-family="Cascadia, Segoe UI Emoji" font-size="15.531914893617014px" fill="#087f5b" text-anchor="start" style="white-space: pre;" direction="ltr">Castle-2</text></g><g transform="translate(220.32795698924747 110.36909520824554) rotate(0 37.5 9.5)"><text x="0" y="15" font-family="Cascadia, Segoe UI Emoji" font-size="15.531914893617014px" fill="#087f5b" text-anchor="start" style="white-space: pre;" direction="ltr">Castle-3</text></g><g transform="translate(202.32795698924747 160.18824414441576) rotate(0 61 9.5)"><text x="0" y="15" font-family="Cascadia, Segoe UI Emoji" font-size="15.531914893617014px" fill="#d9480f" text-anchor="start" style="white-space: pre;" direction="ltr">NAS (storage)</text></g><g transform="translate(201.32795698924747 203.18824414441576) rotate(0 56.5 9.5)"><text x="0" y="15" font-family="Cascadia, Segoe UI Emoji" font-size="15.531914893617014px" fill="#5c940d" text-anchor="start" style="white-space: pre;" direction="ltr">Moat (proxy)</text></g><g stroke-linecap="round"><g transform="translate(342.9755695460964 25.848686103167097) rotate(0 12.299319840903138 5.957911173666332)" fill-rule="evenodd"><path d="M0.77 0.44 L5.92 -7.53 L12.3 -5.23 L20.58 -2.96 L25.13 0.85 L23.82 12.53 L20.11 16.42 L7.58 17.06 L1.92 14.28 L1.96 -1.1" stroke="none" stroke-width="0" fill="#12b886" fill-rule="evenodd"></path><path d="M-0.99 -0.13 C-0.39 -1.12, 0.49 -4.35, 4.48 -5.15 C8.46 -5.95, 19.55 -7.03, 22.94 -4.91 C26.33 -2.78, 25.18 3.9, 24.81 7.6 C24.45 11.3, 24.07 15.47, 20.74 17.3 C17.42 19.14, 8.37 19.3, 4.86 18.59 C1.36 17.88, 0.64 15.35, -0.31 13.05 C-1.27 10.74, -1.08 6.95, -0.86 4.76 C-0.64 2.57, 0.89 0.61, 1.02 -0.12 M0.7 -1.24 C1.03 -2.66, -0.31 -6.5, 3.34 -6.97 C6.99 -7.44, 18.89 -6.74, 22.6 -4.09 C26.3 -1.43, 25.6 5.28, 25.56 8.95 C25.52 12.62, 25.58 16.4, 22.37 17.94 C19.16 19.47, 10.04 19.22, 6.3 18.18 C2.56 17.14, 0.75 13.93, -0.06 11.7 C-0.88 9.47, 1.41 7.01, 1.4 4.8 C1.39 2.59, 0.02 -0.79, -0.11 -1.56" stroke="#000000" stroke-width="1" fill="none"></path></g></g><g stroke-linecap="round"><g transform="translate(346.9755695460965 161.8486861031671) rotate(0 11.783874559776905 5.596265416562346)"><path d="M0.17 0.47 C1.07 -0.34, 1 -4.84, 4.53 -5.39 C8.05 -5.95, 18.09 -4.83, 21.31 -2.85 C24.54 -0.87, 23.73 3.08, 23.88 6.49 C24.04 9.9, 25.28 15.86, 22.25 17.61 C19.21 19.35, 9.17 17.67, 5.66 16.99 C2.16 16.31, 2.26 15.61, 1.22 13.5 C0.19 11.4, -0.43 6.52, -0.56 4.37 C-0.7 2.21, 0.51 1.14, 0.41 0.57 M-1.2 -0.32 C-0.4 -1.48, -0.75 -6.62, 3.42 -7.34 C7.58 -8.05, 20.32 -7.05, 23.78 -4.62 C27.23 -2.18, 24.6 3.43, 24.14 7.26 C23.68 11.1, 24.39 16.98, 21.01 18.39 C17.63 19.81, 7.59 16.73, 3.86 15.73 C0.13 14.73, -0.43 14.32, -1.38 12.4 C-2.32 10.48, -1.86 6.35, -1.8 4.2 C-1.74 2.05, -1.18 0.03, -1.04 -0.51" stroke="#000000" stroke-width="1" fill="none"></path></g></g><g stroke-linecap="round"><g transform="translate(346.9755695460965 205.8486861031671) rotate(0 11.380834733467395 5.903581579301203)"><path d="M-0.29 0.35 C0.76 -0.68, 1.39 -5.36, 5.15 -6.24 C8.91 -7.13, 19.35 -7.02, 22.28 -4.94 C25.2 -2.85, 22.61 2.79, 22.7 6.27 C22.8 9.75, 25.7 14.27, 22.86 15.94 C20.01 17.62, 9.23 16.81, 5.63 16.33 C2.04 15.86, 2.34 15.18, 1.27 13.1 C0.2 11.01, -0.54 6.14, -0.8 3.83 C-1.06 1.52, -0.36 -0.14, -0.28 -0.78 M1.76 -0.51 C2.78 -1.37, 1.06 -4.37, 4.37 -4.98 C7.67 -5.58, 18.59 -6.12, 21.59 -4.14 C24.58 -2.15, 22.29 3.59, 22.35 6.92 C22.4 10.25, 25.03 13.95, 21.94 15.86 C18.85 17.77, 7.68 19.07, 3.81 18.39 C-0.07 17.71, -0.92 14.27, -1.31 11.77 C-1.69 9.27, 1.02 5.16, 1.5 3.38 C1.98 1.6, 1.77 1.72, 1.56 1.09" stroke="#000000" stroke-width="1" fill="none"></path></g></g><g transform="translate(347.82795698924747 20.188244144415762) rotate(0 6 12)"><text x="0" y="19" font-family="Cascadia, Segoe UI Emoji" font-size="20px" fill="#000000" text-anchor="start" style="white-space: pre;" direction="ltr">N</text></g><g transform="translate(379.82795698924747 19.188244144415762) rotate(0 6 12)"><text x="0" y="19" font-family="Cascadia, Segoe UI Emoji" font-size="20px" fill="#000000" text-anchor="start" style="white-space: pre;" direction="ltr">C</text></g><g transform="translate(410.82795698924747 22.188244144415762) rotate(0 6 12)"><text x="0" y="19" font-family="Cascadia, Segoe UI Emoji" font-size="20px" fill="#ffec6e" text-anchor="start" style="white-space: pre;" direction="ltr">V</text></g><g stroke-linecap="round"><g transform="translate(373.41951545040683 71.56740551981648) rotate(0 11.479593727683607 5.975165588830521)" fill-rule="evenodd"><path d="M0.79 1.63 L5.73 -4.26 L14.34 -5.78 L20.41 -3 L23.5 1.82 L23.65 14.27 L20.33 18.18 L9.87 18.91 L2.28 15.57 L-0.78 1.87" stroke="none" stroke-width="0" fill="#e64980" fill-rule="evenodd"></path><path d="M-0.02 -1.08 C0.68 -2.09, 1.73 -6.26, 5.32 -6.85 C8.9 -7.44, 18.38 -7.11, 21.46 -4.62 C24.54 -2.13, 23.57 4.29, 23.77 8.06 C23.96 11.84, 25.78 16.6, 22.64 18.04 C19.5 19.47, 8.54 17.56, 4.9 16.68 C1.27 15.8, 1.83 14.8, 0.82 12.75 C-0.19 10.7, -1.06 6.35, -1.16 4.36 C-1.26 2.38, -0.04 1.51, 0.22 0.84 M-1.5 0.97 C-1 0.13, 0.98 -5.13, 4.62 -5.9 C8.26 -6.67, 17.12 -5.64, 20.34 -3.65 C23.57 -1.67, 23.76 2.83, 23.97 6 C24.18 9.18, 24.54 13.24, 21.6 15.39 C18.67 17.55, 9.68 19.61, 6.36 18.92 C3.03 18.23, 2.56 13.7, 1.66 11.24 C0.76 8.79, 1.45 6.09, 0.95 4.19 C0.45 2.3, -1.41 0.58, -1.34 -0.11" stroke="#000000" stroke-width="1" fill="none"></path></g></g><g stroke-linecap="round"><g transform="translate(403.27302182056746 71.66570702593958) rotate(0 12.25564090279562 6.504219300938701)" fill-rule="evenodd"><path d="M1.63 0.89 L1.78 -1.8 L3.14 -6.54 L23.09 -4.66 L25.06 0.62 L25.46 11.65 L22.92 19.09 L14.8 19.25 L1.73 15.6 L2.3 12.85 L-0.25 -1.29" stroke="none" stroke-width="0" fill="#000000" fill-rule="evenodd"></path><path d="M-1.08 0.48 C-0.63 -0.43, -1.85 -4.74, 1.9 -5.49 C5.66 -6.25, 17.65 -6.29, 21.47 -4.05 C25.28 -1.81, 24.58 4.31, 24.8 7.95 C25.02 11.6, 26.11 16.15, 22.78 17.83 C19.44 19.51, 8.56 18.79, 4.78 18.02 C1.01 17.24, 0.86 15.06, 0.13 13.18 C-0.6 11.3, 0.28 8.88, 0.4 6.75 C0.52 4.62, 0.85 1.44, 0.84 0.4 M0.55 -0.32 C1.42 -1.08, 0.73 -3.9, 4.03 -4.31 C7.33 -4.72, 16.77 -4.47, 20.35 -2.78 C23.94 -1.09, 25.28 2.33, 25.54 5.83 C25.8 9.34, 25.22 16.37, 21.93 18.26 C18.64 20.15, 9.37 17.73, 5.81 17.18 C2.26 16.63, 1.66 16.74, 0.61 14.97 C-0.43 13.19, -0.28 9.14, -0.45 6.52 C-0.62 3.9, -0.68 0.27, -0.4 -0.77" stroke="#000000" stroke-width="1" fill="none"></path></g></g><g stroke-linecap="round"><g transform="translate(341.3895266675993 70.92922301591875) rotate(0 12.081801938448507 5.468268441090572)" fill-rule="evenodd"><path d="M0.89 1.46 L5.5 -5.61 L11.96 -4.94 L21.43 -3.22 L23.85 2.72 L22.52 13.98 L23.14 17.93 L9.21 17.57 L0.82 17.69 L-1.33 -0.25" stroke="none" stroke-width="0" fill="#12b886" fill-rule="evenodd"></path><path d="M0.48 -1.12 C1.18 -2.01, 0.57 -6.08, 4.16 -6.39 C7.76 -6.71, 18.62 -5.47, 22.04 -3.02 C25.46 -0.56, 24.71 5.13, 24.69 8.32 C24.66 11.51, 25.13 14.66, 21.89 16.12 C18.64 17.59, 8.96 17.56, 5.21 17.1 C1.47 16.65, 0.29 15.42, -0.57 13.38 C-1.43 11.34, -0.1 7.05, 0.07 4.87 C0.23 2.7, 0.33 0.98, 0.4 0.33 M-0.73 0.9 C0.36 0.26, 2.86 -4.24, 6.52 -5.2 C10.18 -6.16, 18.09 -6.8, 21.23 -4.86 C24.37 -2.93, 25.5 2.89, 25.37 6.39 C25.24 9.89, 24.16 14.55, 20.46 16.13 C16.76 17.72, 6.65 16.56, 3.17 15.9 C-0.32 15.25, 0.21 14.03, -0.45 12.21 C-1.12 10.38, -0.74 7.15, -0.84 4.97 C-0.95 2.79, -1.45 -0.23, -1.06 -0.89" stroke="#000000" stroke-width="1" fill="none"></path></g></g><g transform="translate(346.24191411075026 65.26878105716764) rotate(0 6 12)"><text x="0" y="19" font-family="Cascadia, Segoe UI Emoji" font-size="20px" fill="#000000" text-anchor="start" style="white-space: pre;" direction="ltr">N</text></g><g transform="translate(378.24191411075026 64.26878105716764) rotate(0 6 12)"><text x="0" y="19" font-family="Cascadia, Segoe UI Emoji" font-size="20px" fill="#000000" text-anchor="start" style="white-space: pre;" direction="ltr">C</text></g><g transform="translate(409.24191411075026 67.26878105716764) rotate(0 6 12)"><text x="0" y="19" font-family="Cascadia, Segoe UI Emoji" font-size="20px" fill="#ffec6e" text-anchor="start" style="white-space: pre;" direction="ltr">V</text></g><g stroke-linecap="round"><g transform="translate(374.76179732960134 115.19156659364194) rotate(0 11.612360187110937 6.115805854123948)" fill-rule="evenodd"><path d="M-1.74 -1.17 L3.75 -7.37 L13.9 -7.18 L23.86 -3.08 L22.89 -0.03 L24.06 11.35 L22.47 16.11 L7.69 17.11 L-0.25 14.14 L-1.76 -0.41" stroke="none" stroke-width="0" fill="#e64980" fill-rule="evenodd"></path><path d="M1.09 -0.11 C1.69 -1.36, 0.81 -6.11, 4.39 -6.71 C7.98 -7.31, 19.5 -5.82, 22.6 -3.69 C25.69 -1.56, 22.92 2.49, 22.96 6.09 C22.99 9.68, 25.96 15.87, 22.78 17.88 C19.61 19.9, 7.58 18.89, 3.91 18.18 C0.24 17.46, 1.38 15.85, 0.77 13.61 C0.15 11.37, 0.28 7.02, 0.22 4.74 C0.17 2.45, 0.64 0.78, 0.44 -0.08 M0.21 -1.22 C0.54 -2.42, -0.43 -5.52, 3.21 -5.69 C6.86 -5.86, 18.82 -4.29, 22.07 -2.23 C25.33 -0.18, 22.77 3.75, 22.73 6.65 C22.69 9.55, 24.8 13.34, 21.82 15.16 C18.84 16.97, 8.22 17.97, 4.85 17.54 C1.47 17.11, 2.5 14.69, 1.59 12.56 C0.68 10.43, -0.18 7.11, -0.61 4.77 C-1.04 2.42, -0.97 -0.52, -1 -1.51" stroke="#000000" stroke-width="1" fill="none"></path></g></g><g stroke-linecap="round"><g transform="translate(404.61530369976197 115.28986809976504) rotate(0 11.118726366117073 5.92875866775222)" fill-rule="evenodd"><path d="M-1.17 -1.08 L-1.32 -2.24 L1.74 -3.09 L23.01 -5.28 L23.21 1.03 L22.54 13.79 L20.84 16.9 L13.01 16.72 L0.3 14.62 L0.02 12.29 L-0.99 0.52" stroke="none" stroke-width="0" fill="#000000" fill-rule="evenodd"></path><path d="M-0.11 -0.44 C0.1 -1.35, -1.71 -3.62, 2.04 -4.36 C5.79 -5.09, 18.94 -6.94, 22.4 -4.86 C25.86 -2.78, 22.79 4.48, 22.82 8.1 C22.86 11.71, 25.38 15.19, 22.62 16.84 C19.86 18.48, 9.88 18.35, 6.28 17.97 C2.67 17.59, 1.91 16.39, 0.99 14.56 C0.08 12.72, 0.95 9.56, 0.77 6.97 C0.6 4.37, 0.12 0.33, -0.08 -1.01 M-1.63 -1.72 C-1.12 -2.48, 0.34 -5.86, 4.24 -6.24 C8.14 -6.62, 18.72 -6.06, 21.77 -4.02 C24.82 -1.97, 22.54 2.59, 22.53 6.05 C22.51 9.51, 24.71 14.91, 21.7 16.75 C18.68 18.59, 7.73 17.66, 4.43 17.1 C1.14 16.55, 2.65 15.12, 1.93 13.41 C1.21 11.7, 0.74 8.97, 0.12 6.85 C-0.5 4.74, -1.79 1.61, -1.8 0.74" stroke="#000000" stroke-width="1" fill="none"></path></g></g><g stroke-linecap="round"><g transform="translate(342.7318085467938 114.55338408974444) rotate(0 12.494834573878734 5.73893179881793)" fill-rule="evenodd"><path d="M-1.08 -1.64 L5.06 -7.02 L15.41 -5.02 L20.81 -5.08 L24.26 -0.21 L24.66 11.9 L20.96 16.13 L6.68 16.14 L-0.16 15.41 L-1.9 -0.99" stroke="none" stroke-width="0" fill="#12b886" fill-rule="evenodd"></path><path d="M-0.44 -0.98 C0.26 -1.88, 1.69 -4.79, 5.3 -5.46 C8.91 -6.13, 17.97 -7.26, 21.23 -4.99 C24.49 -2.72, 24.89 4.39, 24.83 8.16 C24.78 11.93, 24.17 15.98, 20.9 17.62 C17.62 19.25, 8.51 18.61, 5.16 17.97 C1.82 17.32, 1.62 16.09, 0.81 13.75 C-0.01 11.42, 0.59 6.32, 0.29 3.95 C-0.02 1.59, -0.79 0.32, -1.01 -0.45 M1.52 1.11 C2.01 -0.15, 0.91 -6.56, 4.6 -7.44 C8.28 -8.33, 20.15 -6.48, 23.65 -4.22 C27.15 -1.95, 25.76 2.38, 25.59 6.15 C25.42 9.92, 26.36 16.57, 22.61 18.41 C18.86 20.26, 6.59 18.16, 3.09 17.22 C-0.4 16.28, 2.25 15.05, 1.65 12.78 C1.05 10.5, -0.31 5.43, -0.51 3.57 C-0.71 1.71, 0.5 2.44, 0.45 1.59" stroke="#000000" stroke-width="1" fill="none"></path></g></g><g transform="translate(347.58419598994476 108.89294213099288) rotate(0 6 12)"><text x="0" y="19" font-family="Cascadia, Segoe UI Emoji" font-size="20px" fill="#000000" text-anchor="start" style="white-space: pre;" direction="ltr">N</text></g><g transform="translate(379.58419598994476 107.89294213099288) rotate(0 6 12)"><text x="0" y="19" font-family="Cascadia, Segoe UI Emoji" font-size="20px" fill="#000000" text-anchor="start" style="white-space: pre;" direction="ltr">C</text></g><g transform="translate(410.58419598994476 110.89294213099288) rotate(0 6 12)"><text x="0" y="19" font-family="Cascadia, Segoe UI Emoji" font-size="20px" fill="#ffec6e" text-anchor="start" style="white-space: pre;" direction="ltr">V</text></g><g stroke-linecap="round"><g transform="translate(377.3648312910632 163.99052178078273) rotate(0 11.87401913681498 6.20606470559386)" fill-rule="evenodd"><path d="M-0.19 -0.55 L4.98 -3.76 L12.72 -6.59 L21.18 -5.35 L22.78 -0.04 L23.99 12.53 L21.44 17.98 L8.46 16.61 L1.01 16.41 L0.8 -1.18" stroke="none" stroke-width="0" fill="#e64980" fill-rule="evenodd"></path><path d="M-0.59 -0.45 C-0.13 -1.43, 0.1 -5.85, 3.91 -6.29 C7.72 -6.73, 18.99 -5.19, 22.28 -3.09 C25.57 -0.98, 23.61 3.06, 23.65 6.33 C23.69 9.6, 25.79 14.49, 22.51 16.54 C19.24 18.58, 7.56 19.11, 4 18.6 C0.44 18.09, 1.69 15.95, 1.14 13.46 C0.6 10.96, 0.76 5.68, 0.73 3.62 C0.7 1.57, 0.96 1.58, 0.97 1.13 M1.3 -1.73 C2.03 -2.52, 2.75 -4.51, 6.13 -5.05 C9.51 -5.59, 18.65 -6.99, 21.59 -4.97 C24.54 -2.96, 23.82 3.4, 23.79 7.02 C23.76 10.64, 24.55 14.9, 21.41 16.76 C18.28 18.63, 8.19 18.93, 4.98 18.19 C1.77 17.45, 2.96 14.85, 2.16 12.33 C1.35 9.81, 0.56 5.06, 0.17 3.07 C-0.22 1.07, 0.12 0.69, -0.19 0.33" stroke="#000000" stroke-width="1" fill="none"></path></g></g><g transform="translate(382.18722995140683 156.69189731813367) rotate(0 6 12)"><text x="0" y="19" font-family="Cascadia, Segoe UI Emoji" font-size="20px" fill="#000000" text-anchor="start" style="white-space: pre;" direction="ltr">C</text></g><g stroke-linecap="round"><g transform="translate(377.70040176086206 204.93011909621873) rotate(0 11.431578233841037 6.144449276161481)" fill-rule="evenodd"><path d="M0.99 -1.62 L5.31 -6.2 L14.87 -4.75 L23.65 -2.59 L24.99 0.24 L24.25 12.97 L23.78 18.5 L10.38 18.71 L2.05 16.68 L0.05 -0.51" stroke="none" stroke-width="0" fill="#e64980" fill-rule="evenodd"></path><path d="M0.93 0.98 C1.58 -0.09, 0.94 -4.6, 4.47 -5.54 C8.01 -6.47, 18.94 -6.82, 22.12 -4.63 C25.31 -2.44, 23.64 4.05, 23.58 7.59 C23.51 11.14, 24.72 14.88, 21.72 16.66 C18.72 18.45, 8.98 18.87, 5.6 18.32 C2.22 17.76, 2.27 15.6, 1.44 13.34 C0.6 11.07, 0.67 7.09, 0.58 4.73 C0.5 2.37, 1.17 -0.09, 0.91 -0.84 M-0.05 0.44 C0.38 -0.48, -0.23 -3.22, 3.33 -3.9 C6.9 -4.58, 17.96 -5.81, 21.35 -3.67 C24.74 -1.52, 23.87 5.51, 23.67 8.95 C23.48 12.38, 23.52 15.49, 20.2 16.96 C16.88 18.43, 7.3 18.56, 3.76 17.76 C0.22 16.95, -0.42 14.31, -1.05 12.14 C-1.69 9.98, -0.19 6.61, -0.06 4.76 C0.07 2.9, -0.17 1.81, -0.28 0.99" stroke="#000000" stroke-width="1" fill="none"></path></g></g><g transform="translate(382.5228004212055 197.6314946335699) rotate(0 6 12)"><text x="0" y="19" font-family="Cascadia, Segoe UI Emoji" font-size="20px" fill="#000000" text-anchor="start" style="white-space: pre;" direction="ltr">C</text></g></svg>